<?xml version="1.0" encoding="UTF-8"?>
<svg id="Layer_1" data-name="Layer 1" xmlns="http://www.w3.org/2000/svg" viewBox="0 0 480.94 441.2">
  <defs>
    <style>
      .cls-1 {
        fill: #fff;
        stroke-width: 0px;
      }
    </style>
  </defs>
  <g>
    <path class="cls-1" d="M18.14,434.65H7.98l-2.51,6.2H1.89l9.99-24.11h2.41l9.99,24.11h-3.58l-2.55-6.2ZM9.36,431.38h7.44l-3.72-8.95-3.72,8.95Z"/>
    <path class="cls-1" d="M52.69,426.21v3.27h-7.92v8.09h10.68v3.27h-14.12v-24.11h13.78v3.27h-10.33v6.2h7.92Z"/>
    <path class="cls-1" d="M74.01,434.82c1.41,1.72,3.41,3.1,5.89,3.1,2.24,0,4.2-1.45,4.2-3.62,0-3.69-5.1-4.1-8.3-6.2-1.72-1.14-3.06-2.79-3.06-5.3,0-3.51,3.1-6.41,7.3-6.41,3.07,0,5.2,1.34,6.47,2.41l-2.03,2.51c-1.31-1.1-2.79-1.65-4.3-1.65-2,0-3.99,1.14-3.99,3.24,0,3.06,5.13,3.72,8.23,5.79,1.62,1.07,3.13,2.76,3.13,5.51,0,4.24-3.27,6.99-7.47,6.99-3.31,0-6.3-1.45-8.44-4.03l2.38-2.34Z"/>
    <path class="cls-1" d="M102.53,416.74h16.53v3.27h-6.54v20.84h-3.44v-20.84h-6.54v-3.27Z"/>
    <path class="cls-1" d="M153.33,429.49h-13.43v11.37h-3.44v-24.11h3.44v9.47h13.43v-9.47h3.44v24.11h-3.44v-11.37Z"/>
    <path class="cls-1" d="M188.12,426.21v3.27h-7.92v8.09h10.68v3.27h-14.12v-24.11h13.78v3.27h-10.33v6.2h7.92Z"/>
    <path class="cls-1" d="M206.54,416.74h16.53v3.27h-6.54v20.84h-3.44v-20.84h-6.54v-3.27Z"/>
    <path class="cls-1" d="M240.47,416.74h3.44v24.11h-3.44v-24.11Z"/>
    <path class="cls-1" d="M274.19,416.4c3.44,0,6.72,1.41,8.82,3.72l-2.31,2.27c-1.41-1.55-3.93-2.72-6.51-2.72-4.93,0-8.75,3.93-8.75,9.13s3.93,9.13,9.06,9.13c3.24,0,5.58-1.79,6.92-3.41l2.45,2.2c-2.07,2.65-5.65,4.48-9.37,4.48-7.2,0-12.5-5.27-12.5-12.4s5.23-12.4,12.19-12.4Z"/>
    <path class="cls-1" d="M301.74,434.82c1.41,1.72,3.41,3.1,5.89,3.1,2.24,0,4.2-1.45,4.2-3.62,0-3.69-5.1-4.1-8.3-6.2-1.72-1.14-3.06-2.79-3.06-5.3,0-3.51,3.1-6.41,7.3-6.41,3.07,0,5.2,1.34,6.47,2.41l-2.03,2.51c-1.31-1.1-2.79-1.65-4.3-1.65-2,0-3.99,1.14-3.99,3.24,0,3.06,5.13,3.72,8.23,5.79,1.62,1.07,3.13,2.76,3.13,5.51,0,4.24-3.27,6.99-7.47,6.99-3.31,0-6.3-1.45-8.44-4.03l2.38-2.34Z"/>
  </g>
  <path class="cls-1" d="M192.63,201.33h-42.78v-1.82c2.17-.37,4.27-.7,6.36-1.1.72-.14,1.43-.43,2.1-.75,1.81-.87,2.45-2.31,2.04-4.28-4.83-23.02-9.65-46.04-14.49-69.05-2.87-13.67-5.75-27.34-8.7-41-.48-2.23-1.24-4.4-2.03-6.55-.51-1.39-1.25-2.71-2-3.99-.78-1.33-1.85-2.46-3.53-2.4-1.83.07-2.96,1.37-3.45,2.91-1.14,3.54-2.19,7.12-3,10.74-4.89,21.88-9.7,43.78-14.54,65.68-2.14,9.66-4.25,19.33-6.48,28.96-.79,3.39-2.07,6.61-3.97,9.6-4.27,6.7-13.28,6.08-17.76,1.78-2.87-2.76-4.7-6.15-6.13-9.8-2.68-6.85-3.86-14.08-5.37-21.23-4.16-19.65-8.25-39.32-12.43-58.97-1.46-6.85-2.97-13.7-4.7-20.49-.6-2.37-1.83-4.6-2.95-6.8-.69-1.35-1.83-2.48-3.52-2.4-1.82.09-2.95,1.39-3.44,2.93-1.09,3.4-2.12,6.83-2.87,10.32-4.5,20.9-8.91,41.82-13.36,62.73-3.32,15.61-6.66,31.22-9.97,46.83-.38,1.79.29,3.26,2.35,3.95,2.81.93,5.76,1.46,8.65,2.15.24.06.48.06.82.11v1.89H0v-1.78c2.4-.47,4.74-.86,7.06-1.39,3.47-.79,5.44-2.78,6.22-6.5,6.23-29.78,12.63-59.53,18.99-89.29,1.81-8.46,3.53-16.94,5.5-25.36.95-4.06,2.34-8.01,5.06-11.36,2.1-2.59,4.79-3.89,8.05-3.91,8.25-.04,13.42,2.14,17.71,12.49,2.74,6.61,3.91,13.65,5.39,20.6,4.16,19.55,8.28,39.11,12.44,58.66,1.41,6.61,2.86,13.22,4.36,19.81.34,1.49.94,2.94,1.55,4.35.58,1.36,1.43,2.65,3.08,2.72,1.69.07,2.92-1,3.45-2.44,1.04-2.83,1.99-5.72,2.65-8.65,6.49-28.81,12.87-57.64,19.38-86.45.97-4.3,2.26-8.55,3.78-12.69.75-2.04,2.18-3.93,3.65-5.57,2.26-2.53,5.38-2.89,8.65-2.83,8.55.16,13.11,5.35,16.09,12.56,2.62,6.33,3.99,13.01,5.41,19.67,4.33,20.28,8.68,40.55,13.02,60.82,2.74,12.79,5.51,25.56,8.21,38.36.44,2.1,1.51,3.69,3.49,4.29,2.65.81,5.4,1.31,8.12,1.84,1.58.31,1.6.22,1.32,2.08Z"/>
  <path class="cls-1" d="M389.94,199.3v1.99h-43.25v-1.98c1.98-.29,3.94-.54,5.89-.9,1.12-.21,2.24-.51,3.3-.91,2.52-.96,3.31-2.19,3.31-4.85,0-40.45-.01-80.89.03-121.34,0-2.42-.99-4.02-3.14-4.66-2.51-.75-5.12-1.22-7.71-1.65-1.85-.3-1.87-.18-1.65-2.42.51,0,1.04,0,1.57,0,13.48,0,26.96-.07,40.44.02,9.58.07,19.17.27,28.53,2.67,2.59.66,5.17,1.51,7.62,2.58,7.94,3.47,12.74,9.41,14.1,18.1,1.21,7.71,0,14.77-4.93,21-3.11,3.93-7.04,6.92-11.31,9.45-3.55,2.11-7.26,3.96-10.85,6.01-2.16,1.23-4.35,2.46-6.29,3.99-2.36,1.86-2.05,3.78.72,4.96,3.29,1.4,6.69,2.56,10,3.93,7.77,3.22,14.05,8.14,17.61,15.97,2.07,4.55,2.8,9.43,3.12,14.36.44,6.71.72,13.44,1.26,20.14.18,2.2.78,4.41,1.44,6.53,1.28,4.1,4.07,6.51,8.46,6.89.34.03.69.1,1.12.16v1.94c-.19.04-.37.12-.56.12-6.14-.08-12.28-.02-18.41-.28-7.17-.31-10.96-4.24-11.25-11.52-.22-5.58-.17-11.17-.34-16.75-.22-7.02-.58-14.03-2.35-20.89-1.17-4.51-3.37-8.36-6.82-11.52-1.91-1.75-3.69-3.65-5.45-5.55-.74-.8-1.37-1.72-1.91-2.67-1.86-3.29-1.67-5.87,1.01-8.56,2.74-2.75,5.73-5.25,8.64-7.84,5.02-4.46,8.49-9.83,9.13-16.62.7-7.35-.13-14.54-3.47-21.24-2.31-4.64-5.93-8.02-10.68-10.03-7.69-3.26-15.7-3.87-23.88-2.35-1.15.21-2.28.74-3.3,1.33-1.46.84-2.28,2.08-2.28,3.91.02,40.8.02,81.59,0,122.39,0,2.05,1.02,3.43,2.77,3.98,2.54.8,5.2,1.24,7.82,1.81.62.14,1.26.19,1.94.3Z"/>
  <path class="cls-1" d="M262.87,61.67c35.21.15,63.08,22.84,68.92,55.22,4.09,22.68-2.08,42.85-17.07,60.23-11.04,12.8-24.99,20.98-41.66,24.04-21.24,3.89-40.54-.71-57.3-14.52-13.12-10.81-20.94-24.87-23.35-41.65-2.84-19.74,2.11-37.7,14.05-53.59,11.38-15.14,26.48-24.7,45.12-28.39,4.38-.87,8.89-1.07,11.28-1.34ZM211.25,127.83c.08,8.77.98,16.52,2.94,24.13,3.29,12.75,8.71,24.42,18.4,33.62,12.49,11.86,27.39,15.66,44.07,11.96,11.79-2.62,20.08-10.19,26.13-20.36,6.2-10.44,9.11-21.9,10.2-33.87.96-10.5.18-20.91-2.38-31.15-3.18-12.73-8.52-24.37-18.2-33.54-12.59-11.93-27.64-15.64-44.38-11.92-11.71,2.6-20.06,10.05-26.12,20.16-7.73,12.9-10.4,27.09-10.66,40.98Z"/>
  <path class="cls-1" d="M43.23,376.21v2.04H0v-2.02c1.94-.29,3.9-.54,5.85-.89,1.07-.19,2.14-.48,3.15-.86,2.74-1.03,3.49-2.16,3.49-5.03,0-40.39,0-80.78,0-121.17,0-2.6-.73-3.99-3.21-4.75-2.5-.77-5.13-1.12-7.71-1.64-.48-.1-.98-.11-1.56-.17v-2.22c.59,0,1.13,0,1.67,0,13.23,0,26.46-.04,39.68.01,9.8.04,19.53.77,28.93,3.84,5.16,1.69,9.99,4.01,14.08,7.65,7.1,6.31,9.47,14.4,8.54,23.6-.26,2.56-.78,5.12-1.45,7.6-1.94,7.2-6.44,12.47-12.77,16.26-6.13,3.68-12.95,5.55-19.76,7.48-5.16,1.47-10.34,2.95-15.36,4.83-4.43,1.66-8.57,4.08-10.74,8.56-1.04,2.14-1.96,4.6-1.99,6.93-.19,14.76-.12,29.52-.12,44.28,0,1.85,1.15,3.07,2.72,3.55,2.55.78,5.2,1.24,7.81,1.82.62.14,1.27.19,1.96.29ZM30.81,317.55c2.14-3.45,4.97-5.64,8.1-7.43,2.98-1.71,6.1-3.17,9.11-4.83,4.7-2.6,9.51-5.05,14-7.98,5.88-3.84,9.86-9.25,11.49-16.18,1.25-5.32,1.01-10.69.08-16.03-1.79-10.26-7.16-17.67-17.21-21.25-4.81-1.71-9.83-2.07-14.87-2.15-3.53-.06-7.07-.01-10.69-.01v75.86Z"/>
  <path class="cls-1" d="M240.6,375.91c-2.73-.47-5.47-1.03-8.11-1.83-1.36-.41-2.25-1.42-2.53-2.79h-.11v-.95s0-.02,0-.03c0-3.2,0-6.39,0-9.59v-24.63c0-29.25,0-58.5,0-87.74,0-2.64.8-4.09,3.3-4.86,2.46-.75,5.03-1.17,7.58-1.57,1.86-.29,2.06-.48,1.44-2.29h-43.21c-.19,2.1-.17,1.97,1.73,2.3,2.68.46,5.38.99,7.97,1.79,1.9.59,2.81,2.11,2.81,4.27-.05,18.15-.03,36.31-.03,54.46v1.7h-76.46v-1.85c0-18.05.03-36.11-.03-54.16,0-2.37,1.01-3.9,3.1-4.53,2.51-.76,5.11-1.25,7.7-1.68,2.01-.33,2.05-.23,1.6-2.34h-43.11v2.1c.5.07.99.1,1.47.2,2.58.51,5.22.83,7.73,1.59,2.55.78,3.32,2.18,3.32,4.83,0,40.2,0,80.4,0,120.59,0,3.63-.76,4.7-4.24,5.86-.75.25-1.53.45-2.31.58-1.99.33-3.99.61-5.98.9v1.99h43.24v-2.04c-.73-.09-1.38-.13-2-.26-2.57-.56-5.18-.99-7.67-1.78-1.9-.6-2.83-2.09-2.83-4.25.04-20.6.03-41.2.03-61.79v-1.54h76.46v1.83c0,8.78,0,17.56,0,26.33,0,2.04,0,4.09,0,6.13h0v.45c0,1.2,0,2.4,0,3.6v20.02h0c0,1.38,0,2.76,0,4.14,0,3.42-.79,4.54-4.08,5.66-.8.27-1.63.47-2.46.61-1.99.33-3.99.61-5.97.91v1.98h43.38c.24-2.1.2-1.99-1.71-2.31Z"/>
  <g>
    <path class="cls-1" d="M457.61,55.43c.59.07,1.29-.03,2.12-.41,4.11-1.89,6.89-1.87,6.89-1.87l.09-1.19c-2.22-.17-7.78-7.32-7.78-7.32l-.28.49c-3.46-7.35-2.97-17.98-3.64-34.2-.52-12.66-8.02-12.12-14.48-9.21-7.79,3.5-13.69,10.16-16.79,18.12-9.14,23.46-6.04,61.87,5.93,52.2,9.1-7.36,20.64-13.25,27.95-16.61Z"/>
    <path class="cls-1" d="M476.06,69.48c-10.67-10.84-46.75,2.84-46.75,2.84,20.54,4.59,54.6,41.2,50.62,25.49-3.98-15.7,6.8-17.5-3.87-28.34Z"/>
  </g>
</svg>